<?xml version="1.0" standalone="no"?>
<!DOCTYPE svg PUBLIC "-//W3C//DTD SVG 20010904//EN"
 "http://www.w3.org/TR/2001/REC-SVG-20010904/DTD/svg10.dtd">
<svg version="1.0" xmlns="http://www.w3.org/2000/svg"
 width="220.000000pt" height="220.000000pt" viewBox="0 0 220.000000 220.000000"
 preserveAspectRatio="xMidYMid meet">
<metadata>
Created by potrace 1.15, written by Peter Selinger 2001-2017
</metadata>
<g transform="translate(0.000000,220.000000) scale(0.100000,-0.100000)"
fill="#000000" stroke="none">
<path d="M1025 2141 c-3 -6 -3 -37 1 -70 l6 -59 -40 -7 c-23 -4 -45 -4 -50 -1
-5 3 -12 33 -16 66 l-7 61 -32 -6 c-81 -16 -138 -37 -134 -48 3 -7 14 -36 26
-65 l21 -52 -40 -16 c-21 -9 -42 -16 -46 -16 -4 1 -17 25 -30 54 -12 29 -28
54 -36 56 -14 3 -138 -67 -138 -78 0 -4 16 -28 35 -53 19 -25 35 -49 35 -52 0
-10 -54 -54 -66 -55 -7 0 -29 22 -50 50 l-37 49 -36 -30 c-20 -17 -48 -45 -62
-62 l-27 -31 49 -39 c27 -21 49 -42 49 -47 0 -4 -10 -20 -22 -36 -12 -16 -23
-31 -25 -33 -2 -2 -28 13 -58 34 -31 21 -57 36 -60 34 -12 -13 -75 -125 -75
-135 0 -6 27 -23 60 -38 54 -23 60 -28 50 -45 -5 -11 -14 -31 -20 -45 l-9 -25
-60 25 c-33 13 -63 24 -66 24 -5 0 -29 -83 -40 -137 l-6 -31 65 -7 c63 -7 66
-9 66 -34 0 -14 -3 -36 -7 -49 -5 -23 -9 -23 -66 -17 -72 9 -77 4 -77 -80 0
-83 4 -87 78 -77 l61 9 7 -45 c7 -48 -2 -62 -42 -62 -12 0 -36 -3 -53 -6 -30
-6 -31 -8 -25 -43 4 -20 14 -57 23 -83 l16 -46 59 24 c33 13 63 21 67 17 4 -5
14 -24 22 -45 l15 -36 -59 -26 c-32 -14 -59 -31 -59 -37 0 -15 56 -114 73
-127 9 -8 26 -1 64 28 l50 39 31 -39 31 -38 -55 -43 -55 -42 61 -61 61 -61 22
25 c12 14 32 38 44 53 l22 29 36 -29 c19 -15 35 -31 35 -34 0 -3 -16 -28 -37
-54 l-36 -48 24 -20 c28 -22 119 -70 125 -65 2 2 15 29 28 61 l25 56 46 -17
c25 -9 44 -21 41 -27 -36 -89 -44 -115 -38 -118 15 -9 108 -36 132 -39 23 -3
26 1 35 60 6 35 13 63 18 62 4 0 26 0 48 0 l42 0 -7 -69 -7 -68 43 -6 c24 -3
62 -3 85 0 l43 6 -6 67 -7 68 47 3 c52 5 50 6 61 -79 6 -43 10 -52 23 -48 10
3 37 10 61 16 24 6 54 15 67 20 l23 9 -24 62 c-14 34 -24 63 -22 64 1 1 21 9
44 18 l42 16 27 -59 c15 -33 29 -60 31 -60 10 0 101 50 121 66 l22 19 -35 49
c-19 27 -35 53 -35 57 0 3 16 19 36 34 l36 27 16 -23 c9 -13 29 -37 44 -54
l27 -30 55 55 c31 30 56 59 56 65 -1 5 -23 27 -51 48 l-49 39 31 39 30 39 52
-40 52 -40 19 22 c17 22 66 112 66 123 0 3 -26 17 -59 31 l-58 25 16 45 c9 24
19 44 23 44 3 0 27 -9 53 -20 67 -29 73 -27 89 32 31 115 35 105 -43 118 -66
11 -68 12 -64 38 11 74 6 70 74 60 34 -4 64 -6 67 -4 9 10 14 96 8 132 l-7 36
-61 -6 c-69 -8 -78 -2 -78 55 l0 37 66 7 65 7 -6 31 c-6 32 -35 129 -40 135
-2 2 -30 -8 -64 -22 l-62 -25 -9 25 c-6 14 -15 34 -20 45 -10 17 -4 22 50 45
33 15 60 32 60 38 0 10 -63 122 -76 135 -2 2 -28 -13 -58 -33 l-55 -38 -30 34
c-17 18 -30 35 -30 38 0 3 22 22 50 43 27 20 49 41 49 45 0 4 -26 34 -59 66
l-58 58 -37 -51 c-21 -28 -42 -51 -47 -51 -6 0 -25 12 -43 26 l-33 27 38 51
c22 28 39 53 39 56 0 6 -29 25 -95 61 l-50 28 -30 -63 -30 -63 -42 19 -43 19
19 47 c10 26 22 54 25 64 6 13 -3 19 -46 31 -29 8 -67 18 -85 22 l-32 6 -7
-61 c-8 -68 -15 -76 -70 -65 l-36 6 4 67 3 67 -77 3 c-45 2 -79 -1 -83 -7z
m122 -90 l-6 -68 77 -11 c42 -6 78 -9 80 -8 1 2 5 26 9 54 8 74 13 78 66 63
l45 -13 -25 -60 c-13 -33 -22 -63 -19 -66 3 -2 32 -16 63 -29 32 -13 63 -26
69 -29 7 -3 21 20 35 55 13 34 28 61 34 61 5 0 26 -11 46 -23 l37 -23 -39 -54
-39 -55 22 -18 c13 -9 41 -31 62 -49 l39 -32 20 25 c10 13 30 37 43 54 l23 30
36 -35 36 -35 -52 -46 -52 -45 48 -62 c30 -39 52 -59 59 -54 6 5 30 23 54 41
24 19 44 32 46 30 10 -14 46 -77 46 -82 0 -3 -27 -18 -60 -33 -33 -15 -60 -28
-60 -29 0 -1 11 -27 24 -56 13 -30 26 -62 29 -71 7 -19 3 -20 123 29 9 3 34
-64 34 -91 0 -3 -21 -8 -47 -11 -86 -12 -85 -11 -78 -63 14 -109 14 -109 38
-106 98 14 105 13 111 -12 4 -13 3 -36 0 -50 -7 -26 -8 -26 -70 -20 l-63 6 -5
-32 c-3 -18 -8 -54 -11 -80 l-6 -47 61 -7 c33 -4 63 -10 66 -15 7 -12 -15 -89
-26 -89 -5 0 -33 9 -61 20 -28 12 -54 18 -57 15 -7 -7 -62 -138 -59 -141 1 -1
27 -12 57 -25 30 -12 56 -24 58 -25 5 -3 -38 -84 -45 -84 -4 0 -31 17 -61 38
-36 24 -57 33 -59 25 -3 -7 -23 -35 -46 -64 l-41 -52 25 -20 c13 -10 37 -29
52 -41 l28 -22 -35 -39 -35 -38 -23 29 c-13 16 -33 40 -44 53 l-22 25 -58 -44
c-33 -24 -61 -45 -63 -47 -2 -1 13 -25 33 -53 20 -27 36 -54 36 -60 0 -5 -18
-19 -40 -30 l-41 -21 -25 58 c-14 32 -27 59 -29 61 -2 2 -130 -46 -143 -54 -2
-1 8 -30 21 -64 l25 -61 -24 -10 c-76 -28 -76 -28 -89 64 l-6 47 -67 -6 c-97
-8 -92 -4 -85 -79 l6 -65 -52 0 c-48 0 -51 1 -47 23 15 70 16 108 4 111 -7 3
-43 7 -80 10 l-66 6 -5 -27 c-3 -16 -8 -45 -12 -66 -7 -42 -12 -43 -79 -17
l-25 9 25 62 c14 34 24 62 22 63 -2 1 -28 12 -58 23 -30 12 -62 24 -71 28 -12
4 -22 -8 -42 -55 l-27 -61 -32 17 c-60 30 -61 31 -16 90 22 30 39 56 37 57 -2
2 -31 22 -63 46 l-59 44 -46 -52 -46 -52 -35 36 -35 36 30 23 c17 13 41 32 54
43 l24 19 -48 62 c-27 34 -50 62 -52 62 -2 0 -25 -16 -50 -35 -25 -19 -49 -35
-53 -35 -8 0 -50 66 -50 78 0 4 26 18 58 31 31 14 58 25 59 26 3 2 -52 134
-59 140 -3 3 -29 -3 -57 -15 -28 -11 -56 -20 -61 -20 -11 0 -33 67 -27 84 3 8
31 16 67 20 l62 7 -5 32 c-4 18 -9 53 -13 79 l-6 48 -70 -7 -69 -6 3 49 3 49
45 -3 c25 -1 54 -5 66 -7 19 -4 22 3 32 72 7 42 10 78 7 81 -3 3 -30 9 -61 13
-31 4 -58 10 -61 12 -6 6 6 69 16 86 6 9 19 7 54 -8 76 -33 75 -33 107 44 l28
70 -59 28 c-32 15 -59 30 -59 33 0 6 24 51 38 72 7 11 21 5 63 -27 29 -22 54
-39 55 -38 1 1 23 29 49 62 l46 60 -28 25 c-16 14 -40 33 -53 43 l-25 17 37
37 37 37 23 -29 c13 -16 32 -41 44 -54 l21 -24 59 48 c32 26 60 49 61 50 2 1
-15 26 -37 55 l-40 54 37 23 c21 13 41 23 46 23 4 0 19 -26 32 -57 31 -69 29
-67 52 -53 10 6 41 19 68 30 28 10 49 24 49 32 -1 7 -11 36 -22 65 l-21 52 37
11 c64 17 60 22 78 -83 6 -33 10 -38 28 -34 11 3 47 9 78 12 l58 7 -6 42 c-3
22 -7 50 -9 62 -6 29 2 34 53 34 l45 0 -6 -69z"/>
<path d="M1020 1840 c-302 -32 -563 -259 -641 -559 -27 -100 -28 -259 -4 -356
64 -254 252 -458 500 -540 158 -53 361 -44 520 22 193 80 356 258 422 460 35
106 43 277 18 390 -81 372 -433 623 -815 583z m295 -40 c199 -63 362 -201 450
-383 53 -112 69 -185 69 -317 0 -139 -16 -208 -81 -340 -39 -79 -61 -109 -132
-180 -70 -70 -103 -94 -181 -133 -128 -64 -200 -81 -335 -81 -134 0 -206 17
-334 80 -79 39 -109 61 -180 133 -144 144 -208 286 -218 479 -11 218 61 405
213 556 104 103 223 169 368 202 89 20 271 12 361 -16z"/>
<path d="M1133 1786 c-148 -124 -100 -576 61 -576 62 0 113 74 135 196 12 61
6 74 -31 74 -9 0 -23 2 -31 6 -10 4 -16 -6 -21 -38 -12 -74 -60 -102 -92 -53
-20 30 -30 137 -17 184 5 19 21 43 35 54 35 26 52 13 69 -54 l13 -49 44 0 44
0 -6 48 c-19 134 -69 218 -137 228 -28 5 -41 1 -66 -20z"/>
<path d="M868 1770 c-30 -18 -58 -67 -69 -122 -7 -37 -7 -110 2 -248 6 -107
12 -196 13 -196 0 -1 19 1 40 5 l40 6 -3 63 c-2 43 1 62 10 62 15 0 5 143 -10
148 -6 2 -11 32 -11 69 0 47 3 64 13 61 15 -6 24 -94 26 -250 0 -64 4 -123 7
-132 4 -11 19 -16 44 -16 l39 0 -5 208 c-7 293 -22 352 -87 352 -17 0 -40 -5
-49 -10z"/>
<path d="M1365 1678 c-6 -63 -5 -73 11 -85 10 -7 24 -13 32 -13 12 0 14 -23 8
-152 -4 -84 -9 -171 -12 -194 -6 -41 -6 -41 32 -47 21 -4 39 -5 41 -3 2 2 9
81 15 175 9 136 14 171 25 166 7 -3 19 -8 27 -11 10 -4 15 9 18 58 5 74 4 76
-113 138 l-77 40 -7 -72z"/>
<path d="M691 1668 l-34 -22 6 -85 c4 -47 11 -153 17 -236 6 -82 12 -150 13
-152 2 -1 20 0 41 4 38 6 38 6 32 47 -3 23 -11 137 -17 254 -7 116 -15 212
-18 212 -3 0 -21 -10 -40 -22z"/>
<path d="M1596 1545 c-12 -122 -28 -376 -23 -381 2 -3 21 -8 41 -11 l36 -6 0
75 c0 41 3 103 7 138 5 56 8 61 20 45 15 -21 18 -55 4 -55 -25 0 -12 -196 15
-219 15 -12 64 -31 64 -25 0 3 -7 33 -16 66 -12 49 -13 66 -3 90 28 68 -16
209 -91 290 l-47 53 -7 -60z"/>
<path d="M535 1534 c-49 -53 -68 -126 -73 -281 -5 -156 -5 -155 52 -133 22 8
24 13 19 44 -3 22 -1 42 6 50 14 16 5 106 -10 106 -12 0 -12 87 0 95 17 10 21
-11 27 -145 l7 -132 30 6 c16 3 34 6 39 6 15 0 -15 358 -33 392 -14 25 -36 22
-64 -8z"/>
<path d="M1082 920 c-14 -16 -39 -21 -128 -29 -177 -16 -277 -42 -290 -75 -6
-15 32 -82 59 -104 23 -20 146 -27 193 -12 21 7 72 35 113 62 84 54 86 55 171
0 112 -72 168 -85 251 -60 49 14 110 98 89 123 -23 28 -144 55 -313 70 -48 4
-73 11 -87 25 -25 25 -35 25 -58 0z"/>
<path d="M1026 677 c-48 -25 -74 -32 -143 -35 -78 -4 -86 -3 -111 19 l-27 24
25 -29 c43 -50 84 -86 106 -92 11 -3 47 2 80 10 111 29 163 30 272 6 101 -22
102 -22 129 -2 16 11 36 28 45 39 17 18 15 19 -52 19 -57 1 -81 7 -145 38 -43
20 -87 35 -99 35 -11 -1 -47 -16 -80 -32z"/>
</g>
</svg>
